<?xml version="1.0" encoding="utf-8"?>
<!-- Generator: Adobe Illustrator 19.0.0, SVG Export Plug-In . SVG Version: 6.00 Build 0)  -->
<svg version="1.2" baseProfile="tiny" id="Layer_1" xmlns="http://www.w3.org/2000/svg" xmlns:xlink="http://www.w3.org/1999/xlink"
	 x="0px" y="0px" viewBox="0 0 190 190" xml:space="preserve">
<g id="XMLID_171_">
	<path id="XMLID_172_" fill="#CB9B2C" d="M36.7,98.2c-0.7,0.6-1.2,2.9-0.7,3.3C36.2,100.4,36.5,99.3,36.7,98.2z"/>
	<path id="XMLID_173_" fill="#CB9B2C" d="M44.3,96.2c-0.2,0-0.4,0.3-0.6,0.4c0.5,0.4,0.9,0.7,1.3,1c0.1,0,0.1-0.1,0.2-0.1
		c-0.2-0.3-0.3-0.6-0.5-0.8C44.6,96.4,44.4,96.2,44.3,96.2z"/>
	<path id="XMLID_174_" fill="#CB9B2C" d="M38.1,98.6c0,0,0,0.1,0.1,0.1c0.4,0.1,0.8,0.2,1.3,0.3C39.4,98.3,39,98.2,38.1,98.6z"/>
	<path id="XMLID_175_" fill="#CB9B2C" d="M57.9,104.8c-0.3,0.4-0.6,0.7-0.9,1.2C57.7,106,58.1,105.5,57.9,104.8z"/>
	<path id="XMLID_176_" fill="#CB9B2C" d="M34.5,101.4c0.3-0.9,0.4-1.9,0.6-2.9c-1.1-0.2-1.8,0.4-1.9,1.4c0,0.5-0.1,0.9,0,1.4
		c0,0.2,0.3,0.7,0.3,0.6C33.8,101.8,34.4,101.6,34.5,101.4z"/>
	<path id="XMLID_177_" fill="#CB9B2C" d="M70.1,102.1c0.2,0.2,0.5,0.3,0.8,0.5c0-0.1,0.1-0.1,0.1-0.2c-0.9-1.1-1.7-2.3-2.6-3.4
		c-0.1-0.2-0.4-0.2-0.6-0.3c0,0.1,0,0.2-0.1,0.3c0.3,0.5,0.7,0.9,1,1.4C69.1,100.9,69.6,101.6,70.1,102.1z"/>
	<path id="XMLID_178_" fill="#CB9B2C" d="M51.9,104.3c-0.1,0-0.1,0.1-0.2,0.1c-0.1,0.6-0.1,1.3-0.2,2.1c0.6-0.4,1-0.7,1.3-1.1
		c0.1-0.1-0.4-0.5-0.6-0.8C52,104.5,51.9,104.4,51.9,104.3z"/>
	<path id="XMLID_179_" fill="#CB9B2C" d="M54.4,103.9c0.6-0.6,1.2-1.3,1.7-1.9c1.2-1.5,1.2-1.5-0.5-2.3c0,0-0.1,0-0.2,0
		c-0.1,0.2-0.1,0.4-0.3,0.8c-0.8-0.5-1.1-1.8-2.3-1.5c-0.5,0.8-1,1.8-1.6,2.7c0.8,0.8,1.6,1.5,2.4,2.2
		C54,104.2,54.2,104.2,54.4,103.9z"/>
	<path id="XMLID_180_" fill="#CB9B2C" d="M52.7,93.8c0.2,0.9,0.4,1.9,0.4,2.9c0,0.7,0.5,0.8,1.2,1c0.1-1.3,0.2-2.5,0.3-3.8
		c0-0.2-0.1-0.5-0.2-0.5c-0.9-0.4-1.8-0.7-2.8-1c0,0.1-0.1,0.2-0.1,0.2c0.2,0.2,0.4,0.3,0.6,0.5C52.4,93.3,52.6,93.6,52.7,93.8z"/>
	<path id="XMLID_181_" fill="#CB9B2C" d="M64.7,110c0.3,0.2,0.4,0.8,1,0.4c0.5-0.3,1.1-0.5,1.8-0.8c0.2-1.2,0-1.1-1.1-0.8
		c-0.5,0.1-0.9,0.4-1.3,0.7C64.8,109.6,64.6,110,64.7,110z"/>
	<path id="XMLID_182_" fill="#CB9B2C" d="M59.8,102.5c1.6-0.1,3-0.2,4.4-0.3c0.4,0,0.8-0.2,1.2-0.3c0.1-0.1,0.2-0.3,0.3-0.5
		c-0.1-0.1-0.3-0.1-0.4-0.2c-0.1-0.1-0.3-0.1-0.4-0.2c0.1-0.1,0.1-0.3,0.3-0.4c0.2-0.1,0.5-0.2,0.7-0.3c-0.1-0.1-0.2-0.2-0.3-0.3
		c-0.3-0.2-0.6-0.3-1-0.5c0.2-0.2,0.3-0.2,0.3-0.3c0.2-0.2,0.3-0.4,0.4-0.5c-0.2-0.1-0.4-0.2-0.5-0.3c-0.1-0.1-0.3-0.4-0.2-0.5
		c0.2-0.2,0.4-0.2,0.6-0.4c-0.1-0.2-0.3-0.4-0.4-0.6c-0.2-0.3-0.4-0.3-0.6,0c-0.9,1.1-1.7,2.2-2.6,3.3
		C61,100.9,60.4,101.6,59.8,102.5z"/>
	<path id="XMLID_183_" fill="#CB9B2C" d="M68.2,101.6c-0.3,0.3-0.6,0.6-1,1c0.6-0.2,1-0.3,1.7-0.5C68.5,101.8,68.2,101.5,68.2,101.6
		z"/>
	<path id="XMLID_184_" fill="#CB9B2C" d="M35.4,108.6c-0.1-0.4,0-0.9,0-1.3c-0.5-0.1-0.9-0.1-1.4-0.2c1,1.3,1,2.6,0.1,3.8
		c2,0.4,1.5,0.8,3.5-0.1c-0.6-0.4-1-0.7-1.4-1.1C35.8,109.3,35.5,109,35.4,108.6z"/>
	<path id="XMLID_185_" fill="#CB9B2C" d="M20.1,112.6c0.3,1,0.3,1,1.5,0.9c-0.3-1.1-0.5-2.1-1.3-2.9c-0.6,0.5-1,0.9-0.3,1.6
		C20.1,112.3,20.1,112.5,20.1,112.6z"/>
	<path id="XMLID_186_" fill="#CB9B2C" d="M18.2,118c-0.2,0.2-0.6,0.3-0.9,0.4c-0.9,0.2-0.8,0.7-0.6,1.5c0.8-0.3,1.4-0.6,2.1-0.9
		c0.3-0.1,0.7-0.3,0.4-0.7C19,118,18.7,117.5,18.2,118z"/>
	<path id="XMLID_187_" fill="#CB9B2C" d="M30.6,104.3c-0.6-0.4-1-0.7-1.5-1.1c0,0.1-0.1,0.1-0.1,0.2c0.1,0.2,0.2,0.4,0.3,0.7
		c-0.5,0-0.9,0-1.4,0c0.1,0.2,0.2,0.3,0.2,0.4c0,0.2,0,0.4,0.1,0.5c-0.2,0-0.4,0-0.5,0c-0.3,0-0.6,0.1-1,0.1c0,0.1,0,0.1,0,0.2
		c0.2,0.1,0.4,0.2,0.6,0.4c-0.2,0.7-0.7,0.4-1,0.2c-0.5-0.3-0.7-0.1-1,0.3c0.5,0.2,0.9,0.4,1.2,0.4c1.2-0.2,2.4-0.5,3.6-0.8
		c0.2,0,0.3-0.2,0.4-0.4c0.4-0.8,0.7-1.6,1-2.5C30.5,102.6,30.8,103.6,30.6,104.3z"/>
	<path id="XMLID_188_" fill="#CB9B2C" d="M19.3,110c0,0-0.1-0.5-0.2-0.5c-0.7-0.4-1.5-0.7-2.4-1.1c0,0.6,0,1,0,1.2
		c0.6,0.3,1.2,0.7,1.8,0.9C18.7,110.5,19.1,110.2,19.3,110z"/>
	<path id="XMLID_189_" fill="#CB9B2C" d="M13.6,110.5c0.6-0.3,1.2-0.6,1.8-0.9c0-0.3,0-0.6,0-1c-1-0.1-1.7,0.2-2.4,0.8
		c-0.2,0.1-0.3,0.4-0.4,0.6C12.9,110.1,13,110.8,13.6,110.5z"/>
	<path id="XMLID_196_" fill="#CB9B2C" d="M10.3,115c0.4,0.9,0.8,1.8,1.2,2.9c0.4-0.5,0.7-0.8,0.9-1.1c-0.2-0.5-0.5-0.9-0.6-1.3
		C11.5,114.7,11.2,114.5,10.3,115z"/>
	<path id="XMLID_197_" fill="#CB9B2C" d="M13.6,117.9c-0.5-0.3-0.7,0.2-1,0.4c-0.1,0.1,0,0.5,0.1,0.5c0.7,0.3,1.3,0.6,2,0.9
		c0.5,0.2,0.7,0,0.8-0.7c-0.2-0.2-0.4-0.4-0.6-0.5C14.5,118.3,14.1,118.1,13.6,117.9z"/>
	<path id="XMLID_198_" fill="#CB9B2C" d="M28.1,98.7c-0.5-0.6-1-1.2-1.4-1.8c-0.1,0-0.1,0-0.2,0.1c0.1,0.5-0.8,0.9,0,1.3
		c0.5,0.3,1,0.4,1.5,0.5C28,98.8,28.1,98.7,28.1,98.7z"/>
	<path id="XMLID_199_" fill="#CB9B2C" d="M26.8,108.9c0.2,1.1,0.2,1.1,1.2,0.6c0.5-0.3,1-0.6,1.6-0.9c0.2-0.1,0.4-0.2,0.6-0.2
		c-0.1-0.1-0.2-0.3-0.3-0.4C28.9,108.3,27.8,108.6,26.8,108.9z"/>
	<path id="XMLID_200_" fill="#CB9B2C" d="M20.1,115.8c0,0.1,0,0.3-0.1,0.4c-0.6,0.6-0.3,1.1,0.5,1.7c0.4-1,0.9-2,1.3-3
		C20.4,114.7,20.4,114.7,20.1,115.8z"/>
	<path id="XMLID_201_" fill="#CB9B2C" d="M22.4,95.2c1.3,0.5,2.5,0.9,3.7,1.4C25,95.3,23.5,94.8,22.4,95.2z"/>
	<path id="XMLID_202_" fill="#CB9B2C" d="M24,104.6c-0.2-0.1-0.5-0.2-0.7-0.2c0,0.1-0.1,0.2-0.1,0.3c0.3,0.3,0.6,0.6,0.9,0.9
		c0.1,0.1,0.3,0,0.5,0c0-0.2,0-0.4-0.1-0.5C24.3,104.8,24.2,104.7,24,104.6z"/>
	<path id="XMLID_205_" fill="#CB9B2C" d="M95,0C42.5,0,0,42.5,0,95s42.5,95,95,95s95-42.5,95-95S147.5,0,95,0z M78.7,116.4
		c0.2,0.5,0.4,0.9,0.5,1.3c0.1,0.3,0.1,0.7,0,1c-0.3,0.7-0.7,1.4-1.2,2.1c-0.2,0.3-0.6,0.4-0.9,0.5c-0.6,0-1,0.3-0.9,0.8
		c0.1,0.7-0.1,1.1-0.6,1.4c-0.5,0.4-1.1,0.8-1.6,1.1c-0.4,0.2-0.8,0.4-1.3,0c-0.3-0.3-1,0-1.1,0.5c-0.1,0.6-0.5,0.8-1,0.8
		c-0.3,0-0.6,0.1-0.9,0.3c-0.5,0.2-1.8-0.1-2.2-0.5c-0.4-0.4-0.8-0.5-1.3-0.2c-0.3,0.2-0.8,0.4-1.1,0.3c-0.7-0.2-1.4-0.4-2-0.7
		c-0.4-0.2-0.8-0.4-0.8-1c0-0.4-0.6-0.8-1.1-0.8c-0.4,0-0.8-0.1-1-0.3c-0.6-0.5-1.1-1.1-1.6-1.7c-0.3-0.3-0.3-0.6-0.2-1.1
		c0.1-0.3-0.3-1-0.5-1.1c-0.8-0.1-0.9-0.6-1-1.2c-0.1-0.6-0.3-1.2-0.4-1.7c-0.2-0.5,0-0.8,0.3-1.2c0.2-0.3,0.3-1,0.2-1.1
		c-0.6-0.6-0.6-1.2-0.4-1.8c0.1-0.4,0.1-0.8,0.2-1.4c-1.3,0.1-2.7,0-3.9,0.3c-2.3,0.5-4.6,1-7,1c-2.6,0-5.1,0-7.7,0
		c-0.1,1.5-0.1,1.5-1.5,2.2c-0.2,0.1-0.4,0.2-0.5,0.3c-0.9,0.5-1.8,1-2.9,1.1c-1.4,0.1-2.3-0.2-2.8-1.4c-0.1-0.4-0.3-0.7-0.3-1.1
		c0-1.1,0-2.3,0-3.6c-1.3,0.7-2.3,1.4-3.4,2c0.3,0.4,0.5,0.7,0.7,0.9c0.2,0.2,0.5,0.4,0.5,0.7c0.1,0.9,0.1,1.9,0,2.8
		c0,0.2-0.3,0.6-0.5,0.7c-0.6,0.4-0.7,0.8-0.3,1.4c0.1,0.2,0.2,0.5,0.1,0.7c-0.4,0.8-0.8,1.6-1.2,2.3c-0.2,0.4-0.5,0.5-1,0.5
		c-0.3,0-0.9,0.6-0.9,0.8c0.3,0.7-0.2,1.1-0.6,1.4c-0.5,0.4-1,0.7-1.5,1c-0.5,0.4-0.9,0.4-1.5,0.1c-0.5-0.3-1-0.1-1.1,0.5
		c-0.2,0.6-0.5,0.8-1,0.8c-0.3,0-0.6,0-0.8,0.1c-1,0.4-1.7,0.3-2.4-0.4c-0.3-0.3-0.7-0.5-1.2-0.1c-0.2,0.2-0.8,0.3-1.1,0.3
		c-0.7-0.1-1.4-0.4-2-0.7c-0.3-0.2-0.7-0.6-0.8-0.9c-0.2-0.6-0.5-0.9-1.2-0.8c-0.3,0.1-0.7,0-0.9-0.2c-0.6-0.6-1.1-1.2-1.6-1.8
		c-0.5-0.5-0.5-1,0-1.4c-0.3-0.4-0.4-1-1.1-0.9c-0.1,0-0.3-0.2-0.4-0.4c-0.2-0.4-0.3-0.9-0.4-1.3c-0.1-0.1-0.2-0.2-0.3-0.3
		c0-0.6,0-1.2,0-1.8c0.2-0.3,0.6-0.5,0.7-0.8c0.2-0.6-0.3-0.8-0.7-1c0-0.6,0-1.2,0-1.8c0.1-0.2,0.2-0.4,0.4-0.6
		c0.3-0.5,0.5-1.1,0.9-1.3c0.6-0.3,0.9-0.7,0.7-1.4c-0.1-0.2-0.1-0.6,0.1-0.8c0.6-0.7,1.2-1.4,1.8-2c0.2-0.2,0.6-0.2,0.9-0.2
		c0.5,0.1,0.9-0.2,1.1-0.7c0.1-0.4,0.4-0.8,0.7-1c0.6-0.4,1.3-0.6,1.9-0.8c0.5-0.1,1-0.3,1.4,0.3c0.4,0.4,0.9,0.3,1.1-0.1
		c0.4-0.6,0.8-0.7,1.4-0.6c0.6,0.1,1.2,0.2,1.8,0.3c0.6,0.1,1.1,0.2,1.2,0.9c0,0.2,0.5,0.4,0.6,0.4c0.8-0.5,1.6,0,2.4,0
		c0,0,0,0,0.1,0c0.9-0.2,1.9-0.6,2.8-0.6c0.9,0,1-0.2,0.6-1c0.5,0,0.9,0,1.4,0c-0.7-1.4-0.8-1.5-2.2-1.7c-0.1,0.2-0.1,0.4-0.2,0.6
		c-0.1,0.5-0.3,0.6-0.8,0.4c-1.2-0.4-2.4-0.9-3.5-1.3c-1.9-0.7-3.9-1.4-5.8-2.1c-1-0.4-2.1-0.8-3.2-1.2c0.1-0.4,0.2-0.6,0.3-0.9
		c0-0.3,0.1-0.5,0-0.8c-0.1-0.3,0.1-1.6,0.3-1.7c0.7-0.1,0.8-0.7,1.1-1.2c0.1-0.2,0.5-0.4,0.7-0.3c1.5,0.5,2.9,1.2,4.4,1.7
		c0.5,0.2,1.1,0.4,1.6,0.6c0-0.1,0.1-0.1,0.1-0.2c-0.1-0.1-0.2-0.2-0.3-0.3c-0.7-0.3-1.5-0.6-2.2-0.9c-1.6-0.7-3.2-1.3-4.8-2.1
		c-2-0.9-3.9-1.9-5.8-3c-1.1-0.6-1.2-1.1-0.4-2.1c0.3-0.4,0.9-0.8,1.3-0.8c0.8,0.1,1.6,0.5,2.4,0.7c0.8,0.3,1.6,0.9,2.5,0.3
		c0.1-0.1,0.4-0.1,0.5,0c1.4,0.4,2.3-0.8,3.5-1.2c-1.5-1.8-3.6-3.1-4.1-5.7c0.4,0.1,0.8,0.1,1.1,0.2c1.5,0.6,3,1,4.4,1.7
		c2.5,1.3,4.9,2.7,7.2,4.1c0.6,0.4,1.2,0.6,1.9,0.7c4.8,0.7,9.4-0.3,13.9-1.9c2.9-1,5.9-1.9,9-2.2c0.1,0,0.3-0.1,0.4-0.1
		c0.4-0.6,0.7-1.2,1.1-1.9c-0.4,0-0.6,0-0.8,0c-0.6-0.1-1-0.7-0.7-1.3c0.1-0.2,0.5-0.4,0.8-0.5c0.7-0.2,1.4-0.4,1.6-1.2
		c0.1-0.6,0.3-1.3-0.6-1.6c-0.1,0-0.2-0.3-0.2-0.4c0.2-0.7-0.3-0.8-0.8-0.9c-0.3-0.1-0.7-0.4-0.8-0.7c-0.1-0.2,0.2-0.5,0.3-0.8
		c0-0.1,0.1-0.2,0.1-0.4c0.3,0,0.5,0,0.8,0c0,0.1,0,0.1,0,0.1c0.6,1.2,2.1-0.1,2.8,0.9c0,0,0.2,0,0.3,0c0.1-0.1,0.3-0.2,0.4-0.2
		c0.6-0.4,1.3-0.3,1.6,0.1c0.6,0.6,1.3,0.7,2.1,0.7c0.2,0,0.5,0.2,0.5,0.3c0,0.2-0.1,0.5-0.3,0.7c-0.1,0.1-0.4,0-0.6,0
		c-0.3-0.1-0.6-0.3-0.9-0.5c0,0.1-0.1,0.1-0.1,0.2c0.1,0.3,0.2,0.7,0.4,0.7c0.9,0.2,0.6,0.9,0.7,1.5c0,0.3,0.2,0.7,0.4,0.9
		c0.9,0.5,1.1,1.2,0.5,2c-0.2,0.2-0.4,0.4-0.6,0.7c-0.1,0.2-0.1,0.5-0.1,0.6c0.4,0.5,0.8,1,1.3,1.4c1.8,1.4,3.8,2.6,5.6,4.1
		c1.9,1.7,3.6,3.6,5.3,5.5c0.8,0.9,1.3,2,2,3c0.1,0.2,0.1,0.4,0.1,0.7c-0.3,0-0.6,0-0.8-0.1c-0.2-0.1-0.4-0.3-0.7-0.5
		c-0.4-0.3-0.7-0.5-1.1-0.8c0,0-0.1,0.1-0.1,0.1c0.3,0.4,0.7,0.8,1.1,1.4c-0.8,0.1-1.4,0.2-2,0.3c-0.5,0.1-1.1,0.1-1.6,0.2
		c-0.6,0.1-0.7,0.4-0.4,0.8c1.7,2.3,3.4,4.5,5.2,6.8c0.1,0.1,0.2,0.2,0.3,0.3c0.8,0.5,1.6,0.9,2.4,1.3c0.6,0.3,0.9,0.8,0.8,1.5
		c-0.1,0.5,0.4,0.9,0.9,0.9c0.3,0,0.7,0.2,0.9,0.4c0.5,0.7,0.9,1.4,1.2,2.2c0.1,0.3,0.1,0.8,0,0.9c-0.5,0.4-0.4,0.9-0.2,1.4
		c0.7,0.1,1,0.5,1,1.2c0,0.6,0,1.2,0,1.7C80.1,115.8,79.8,116.3,78.7,116.4z M123.4,108.2c-2.4,0.4-4.8,0.7-7.1,1
		c-0.3,0-0.9,0.2-1,0.3c-0.1,0.6-0.1,1.3,0.1,1.7c0.5,0.9,0.3,3.4-0.6,4c-0.8,0.5-1,1.1-0.7,1.9c0.1,0.3-0.1,0.6-0.2,0.9
		c-0.2,0.5-0.6,0.9-0.9,1.4c-0.3,0.5-0.5,1-1.3,1c-0.4,0-1.1,0.8-1.1,1.2c-0.1,0.7-0.4,1-0.9,1.3c-0.5,0.3-0.9,0.6-1.3,0.9
		c-0.2,0.1-0.6,0.3-0.8,0.2c-1.1-0.2-2,0.2-2.3,1.2c-0.7,0.2-1.3,0.4-2,0.5c-0.6,0.1-1.1,0.4-1.7-0.2c-0.3-0.3-1.3-0.2-1.7,0.1
		c-0.6,0.5-1.2,0.4-1.8,0.4c-0.4,0-0.9,0-1.3-0.2c-0.3-0.1-0.7-0.3-0.9-0.6c-0.5-0.8-1.6-1-2.4-0.4c-0.6-0.3-1.1-0.6-1.7-0.9
		c-0.6-0.4-1.3-0.5-1.3-1.5c0-0.4-0.8-0.9-1.3-1c-0.6-0.1-0.9-0.2-1.2-0.7c-0.3-0.5-0.7-0.8-1-1.3c-0.2-0.4-0.3-0.8-0.3-1.2
		c0.1-0.7-0.7-1.8-1.5-1.9c-0.2-0.9-0.4-1.7-0.7-2.6c0-0.1-0.3-0.1-0.4-0.2c0-0.2,0-0.4,0-0.6c0.3-0.2,0.6-0.4,0.8-0.6
		c-0.4-0.5,0.3-1.6-0.8-1.7c0-1.2,0-2.3,0-3.5c1.3-0.3,1.8-1.7,1.1-2.8c0.3-0.6,0.6-1.2,1-1.8c0.3-0.5,0.4-1.2,1.3-1.3
		c0.4,0,0.8-1,1.1-1.5c0.2-0.4,0.3-0.8,0.6-1.1c0.4-0.5,0.9-0.8,1.4-1.2c0.2-0.1,0.5-0.3,0.7-0.3c1.1,0.3,1.7-0.1,2.1-1.1
		c0.1-0.2,0.2-0.4,0.4-0.4c0.9-0.3,1.8-0.6,2.7-0.9c0.1,0,0.4,0,0.4,0.1c0.7,0.8,1.3,0.1,2,0c0.5-0.1,1-0.4,1.5-0.5
		c0.6-0.1,1.2,0,1.7,0.1c0.2,0,0.6,0.1,0.7,0.3c0.6,1,1.3,1,2.2,0.6c0,0,0.1,0,0.1-0.1c0.6-0.2,3.1,1.2,3.2,1.8
		c0.2,0.8,1.1,1.4,1.9,1.3c0.2,0,0.5,0,0.6,0.2c0.6,0.6,1.2,1.2,1.8,1.8c0.1,0.2,0.2,0.4,0.2,0.6c-0.1,1,0.2,1.6,1.2,2
		c0.4,0.2,0.7,0.9,1.1,1.5c1.4-0.3,2.9-0.7,4.4-1.1c0.9-0.2,1.8-0.6,2.7-0.7c0.4,0,1,0.3,1.1,0.6c0.4,1.3,0.6,2.6,0.8,3.9
		C124.1,107.6,123.7,108.1,123.4,108.2z M184.1,116.2c-0.1,0.1-0.3,0.4-0.2,0.5c0.7,0.9,0,1.4-0.4,2c-0.5,0.7-0.7,1.7-1.9,1.8
		c-0.4,0-1.5,0.7-0.9,1.7c-0.8,0.6-1.5,1.1-2.3,1.7c-0.2,0.1-0.5,0.3-0.7,0.2c-1.1-0.3-1.8,0.1-2.2,1.1c-0.1,0.1-0.2,0.3-0.4,0.3
		c-0.6,0.2-1.2,0.3-1.8,0.4c-0.6,0.1-1.2,0.4-1.8-0.3c-0.2-0.3-1.4-0.3-1.7,0.1c-0.5,0.6-1.1,0.4-1.6,0.4c-0.5,0-1,0-1.4-0.2
		c-0.3-0.1-0.6-0.3-0.8-0.5c-0.4-0.6-1.5-0.9-2.2-0.7c-0.2,0.1-0.4,0.1-0.5,0c-0.8-0.4-1.7-0.9-2.5-1.4c-0.2-0.1-0.2-0.4-0.2-0.6
		c-0.2-0.9-0.7-1.4-1.7-1.4c-0.2,0-0.5-0.2-0.7-0.4c-0.5-0.6-0.9-1.2-1.4-1.8c-0.2-0.3-0.3-0.6-0.2-1c0.1-0.5-0.5-1.2-0.9-1.8
		c-0.2-0.3-0.6-0.5-0.8-0.8c-0.3-0.6-0.4-1.3-0.6-1.9c-0.1-0.3-0.1-0.6,0.1-0.8c0.6-0.9,0.5-1.4-0.2-2.3c-0.2-0.2-0.2-0.6-0.2-0.8
		c0-0.7,0.1-1.5,0.2-2.2c0-0.2,0.1-0.5,0.3-0.6c1-0.5,0.9-1.3,0.8-2.3c-0.1-0.4,0.1-0.8,0.3-1.2c0.5-0.8,0.5-2.1,1.9-2.1
		c0.3,0,0.8-0.8,0.8-1.1c-0.2-1.3,0.9-1.5,1.5-2.2c0.3-0.3,0.6-0.5,0.9-0.8c-0.4-1-1.1-1.9-0.4-3.1c0.1-0.1-0.3-0.6-0.4-0.9
		c-0.5-1.1-1.1-2.2-1.6-3.3c-0.3-0.7-0.7-0.4-1.1-0.1c-2.5,2.3-4.6,5-6.4,8c-0.2,0.4-0.3,0.9-0.7,1.1c-0.5,0.4-1.1,0.9-1.6,0.9
		c-0.8,0-1.1,0.3-1.3,1.1c-0.6,2.9-1.5,5.6-3.1,8c-0.8,1.2-1.6,2-3.2,2.2c-3.2,0.3-6.3,0.5-9.5-0.1c-1-0.2-2-0.4-3-0.5
		c-2.3-0.2-2.1-1-2.6-2.6c-0.5-1.6-0.9-3.2-1.4-4.7c-0.3-1.2-0.7-2.3,0.3-3.3c-0.5-0.8-1-1.6-1.6-2.4c-0.2-0.2-0.6-0.3-0.8-0.3
		c-3,0-6,0.2-8.9,0.1c-0.8,0-1.7-0.4-2.4-0.8c-4.8-2.9-9.5-6-14.2-8.9c-0.8-0.5-1.1-1.1-0.8-2c0.3-0.9,0.7-1.5,1.8-1.4
		c2.2,0.1,4.3,0.2,6.5,0.2c0,0,0.1-0.1,0.4-0.3c-1-0.4-1.8-0.9-2.7-1c-4.8-0.8-9.7-1.5-14.5-2.2c-0.2,0-0.5-0.1-0.7-0.2
		c-0.2-0.2-0.4-0.5-0.6-0.7c0.2-0.2,0.4-0.5,0.7-0.5c2-0.2,4-0.4,6.1-0.7c3.2-0.3,6.5-0.6,9.7-1.1c1.4-0.2,2.4,0.3,3.6,0.8
		c3.2,1.4,6.5,2.4,9.9,3c3.5,0.6,7.1,0.6,10.6,0.3c2.2-0.2,4.5-0.6,6.6-1.3c3.4-1,6.7-2.3,10.1-3.5c1.3-0.4,2.6-0.1,3.4,1
		c0.4,0.5,0.7,0.5,1.2,0.2c2.3-1.7,2.3-1.2,3.4,0.9c0.7,1.3,1.4,2.5,2.1,3.8c0.4,0.7,0.6,1.6,1.1,2.3c0.1,0.2,0.6,0.3,0.9,0.4
		c0.1-0.1,0.1-0.2,0.2-0.3c-1.7-3.4-3.5-6.8-5.2-10.2c-1.5,0.3-1.5,0.2-2.3-1.2c-1-1.9-2-3.7-3.1-5.6c-0.2-0.3-0.7-0.5-1.1-0.5
		c-1.4,0-2.8,0-4.2,0.1c-1.2,0-1.4-0.2-1.4-1.4c0-0.7,0-1.4,0-2.1c0-1,0.3-1.1,1.2-0.7c1,0.4,2,0.8,3,1.1c2,0.6,4.1,0.5,6.1-0.1
		c0.4-0.1,0.9-0.1,1.2-0.2c0.9,1.8,1.8,3.3,2.6,4.9c0.5,1,1.1,1.9,1.7,2.9c0.1,0.1,0.1,0.4,0,0.5c-0.5,0.8-0.6,0.8-0.1,1.8
		c0.3-0.1,0.7-0.1,0.9-0.3c0.7-0.6,1.3-0.3,1.8,0.2c1.4,1.2,2.4,2.6,2.6,4.5c0.2,1.7,0.1,1.8-1.6,2.7c0.2,0.5,0.4,1.1,0.7,1.6
		c0.1,0.1,0.6,0.1,0.8,0c2.6-1.3,5.3-2.1,8.1-2.2c4.7-0.2,8.7,1.8,12.2,4.8c0.6,0.5,1.2,1.1,1.8,1.7c0.2,0.2,0.4,0.4,0.5,0.6
		c0,0.3-0.1,0.7-0.1,1.1c-0.3,0-0.6,0-0.9-0.2c-1.5-0.9-2.9-1.9-4.5-2.7c-3.8-1.9-7.8-2.5-11.9-0.9c-1.4,0.5-2.8,1.1-4.2,1.7
		c1,1.9,1.8,3.5,2.7,5.1c0.1,0.2,0.3,0.3,0.5,0.4c0.3,0.2,0.8,0.3,0.9,0.6c0.5,1.4,1.8,1.4,2.8,1.8c0.4,0.2,1.4,0,1.6-0.4
		c0.4-0.5,0.8-0.5,1.3-0.5c0.6,0,1.2,0,1.8,0.1c0.2,0,0.6,0.2,0.6,0.3c0.3,1,1.5,1,1.7,0.8c1.3-0.8,2,0.3,3,0.6
		c0.5,0.1,0.9,0.4,1,1.1c0.1,0.4,0.9,1.1,1.3,1c0.9-0.1,1.3,0.4,1.7,0.9c0.3,0.4,0.7,0.7,1,1.1c0.1,0.1,0.3,0.3,0.3,0.5
		c-0.1,1.3,0,1.5,1.3,2.1c0.1,0.1,0.2,0.2,0.3,0.4c0.3,0.7,0.6,1.4,0.9,2.1c0.1,0.2,0.1,0.5,0.1,0.6c-0.9,1.6,0.4,3.2,0,4.8
		c-0.1,0.2,0.6,0.6,0.5,0.8c-0.1,1-0.3,2.1-0.6,3.1C185.1,115.4,184.5,115.7,184.1,116.2z"/>
	<path id="XMLID_208_" fill="#CB9B2C" d="M105.7,110.7c-0.3,0.1-0.7,0.4-0.7,0.7c-0.8,3.2-4.2,5-7.3,3.3c-1.7-1-2.7-2.6-2.6-4.6
		c0.1-2.1,1.1-3.6,3-4.4c2-0.8,3.8-0.5,5.3,1c0.5,0.5,1,0.6,1.6,0.4c0.7-0.2,1.4-0.4,2.1-0.6c-0.8-2.7-4.9-5-8.4-4.3
		c-4.8,1-7.4,4.9-6.8,9.3c0.5,3.9,3.8,7.7,9.7,6.9c3.4-0.5,6.8-3.9,6.5-8.1C107.3,110.4,106.5,110.5,105.7,110.7z"/>
	<path id="XMLID_209_" fill="#CB9B2C" d="M102.4,81.7c0.3,0.1,0.7,0.3,1,0.4c0.8,0.2,1.6,0.4,2.4,0.7c0.4,0.2,0.8,0.8,1.1,0.8
		c1.3-0.2,2.5-0.5,3.7-0.8c0-0.2,0-0.3-0.1-0.5C108,81.4,105.2,81.5,102.4,81.7z"/>
	<path id="XMLID_210_" fill="#CB9B2C" d="M137.3,103.7c-1-0.4-2-0.6-3.1-0.8c0,0.1,0,0.1,0,0.2c-0.6,0-1.3,0-1.9,0.1
		c-1.5,0.2-2.2,1.1-1.8,2.4c0.5,1.5,1.8,3.1,4.5,2.7c1.4-0.2,2.9-1.7,3-3.3C138,104.5,137.7,103.8,137.3,103.7z"/>
	<path id="XMLID_211_" fill="#CB9B2C" d="M17.7,91.5c-2.4-1.2-4.9-2.5-7.5-3.2C12.6,89.5,15.1,90.7,17.7,91.5z"/>
	<path id="XMLID_212_" fill="#CB9B2C" d="M72,112.3c0.1,0.1,0.1,0.3,0.1,0.4c0.3,0.9,0.5,1,1.7,0.7c-0.4-1-0.9-1.9-1.3-2.9
		C71.6,111.1,71.4,111.6,72,112.3z"/>
	<path id="XMLID_213_" fill="#CB9B2C" d="M139.5,97.6c-1.5-0.7-3.1-1.3-4.6-1.9c-0.3-0.1-1,0.2-1.2,0.5c-0.1,0.2,0.1,1,0.4,1.1
		c1.6,0.8,3.3,1.5,5,2.2c0.7,0.3,1.3-0.3,1.3-1.2C140.1,98.1,139.8,97.7,139.5,97.6z"/>
	<path id="XMLID_214_" fill="#CB9B2C" d="M11.7,113.2c0.2-0.6,0.4-1.2,0.6-1.8c-0.2-0.2-0.5-0.5-0.9-1c-0.4,1.1-0.8,2.1-1.3,3.2
		C10.8,113.5,11.4,113.9,11.7,113.2z"/>
	<path id="XMLID_215_" fill="#CB9B2C" d="M7.6,86.3c-0.1,0.1-0.1,0.4-0.1,0.5c0.2,0.1,0.4,0.1,0.6,0.1c0.4,0,0.7,0,1.1,0
		c0.3,0,0.6,0,0.8,0c0-0.1,0-0.1,0-0.2c-0.6-0.2-1.3-0.4-1.9-0.6C8,86.2,7.7,86.2,7.6,86.3z"/>
	<path id="XMLID_216_" fill="#CB9B2C" d="M143.2,95.5c-0.7-0.4-1.5-0.7-2.3-1c-0.9-0.3-1.7-0.7-2.8-1.1c-0.2,0.3-0.6,0.6-0.7,0.9
		c0,0.3,0.3,0.9,0.5,1c1.4,0.7,2.9,1.2,4.3,1.9c0.7,0.3,1.3,0.5,1.7-0.3C144.5,96.2,143.8,95.8,143.2,95.5z"/>
	<path id="XMLID_217_" fill="#CB9B2C" d="M72.1,115.8c0,0.1-0.1,0.3-0.1,0.3c-0.7,0.7-0.2,1.1,0.4,1.6c0.7-0.8,1.2-1.8,1.3-2.9
		C72.5,114.7,72.5,114.7,72.1,115.8z"/>
	<path id="XMLID_218_" fill="#CB9B2C" d="M55.7,105.3c0.1,0,0.3,0,0.4-0.1c0.3-0.4,0.6-0.7,0.9-1.1c-0.4,0.3-0.8,0.5-1.2,0.8
		C55.7,105,55.7,105.2,55.7,105.3z"/>
	<path id="XMLID_219_" fill="#CB9B2C" d="M169.1,102.3c0.9,1.4,1.2,3,3.2,3.7c2.4,0.9,3.1,3.2,2.4,5.8c-0.6,2.5-3.5,4.1-5.9,3.4
		c-3.3-1-4.7-4.5-3-7.4c0.1-0.2,0.2-0.4,0.1-0.5c-0.5-0.9-1-1.8-1.5-2.8c-3,2.7-3.5,7.8-0.8,11.1c2.5,3.1,7.2,4.1,10.8,1.7
		c3.8-2.4,4.7-6.5,3.2-10.2C175.9,103,171.4,101.5,169.1,102.3z"/>
	<path id="XMLID_220_" fill="#CB9B2C" d="M148.2,94.4c-1.6-0.8-3.3-1.5-5-2.1c-0.3-0.1-0.9,0.2-1.1,0.5c-0.2,0.4-0.2,1,0.5,1.2
		c0.6,0.2,1.2,0.5,1.7,0.8c1.1,0.5,2.2,0.9,3.4,1.4c0.3-0.2,0.8-0.5,0.9-0.8C148.8,95.1,148.5,94.5,148.2,94.4z"/>
	<path id="XMLID_221_" fill="#CB9B2C" d="M55.4,108c1.4,0.3,2.6,0.1,2.8-0.4c-0.7,0-1.3,0-1.8-0.2C55.7,107.2,55.6,107.6,55.4,108z"
		/>
	<path id="XMLID_222_" fill="#CB9B2C" d="M62.5,96.8c-0.2,0-0.4-0.1-0.6,0c-0.2,0.1-0.3,0.3-0.4,0.4c-0.8,1-1.6,2-2.4,3
		c-0.4,0.5-0.2,0.7,0.2,1c1.1-1.3,2.1-2.6,3.1-3.9C62.5,97.2,62.5,96.9,62.5,96.8z"/>
	<path id="XMLID_223_" fill="#CB9B2C" d="M61.1,95.4c-0.1-0.6-1.9-1.6-2.4-1.4c-0.5,0.1-0.9,0.3-1.3,0.4c-0.1,0.3-0.2,0.6-0.3,0.9
		c-0.3,0.8-0.7,1.6-1,2.3c-0.1,0.2,0,0.5,0.1,0.6c0.7,0.4,1.3,0.7,2.1,1.1c0.9-1.1,1.8-2.2,2.6-3.3C61,95.8,61.2,95.6,61.1,95.4z"/>
	<path id="XMLID_224_" fill="#CB9B2C" d="M68.6,109.7c0.6,0.2,1.1,0.4,1.5,0.6c0.7,0.4,1.1,0.2,1.4-0.8c-0.9-0.3-1.8-0.7-2.8-1.1
		C68.6,109,68.6,109.3,68.6,109.7z"/>
	<path id="XMLID_225_" fill="#CB9B2C" d="M57.5,102.1c-0.3,0.4-0.6,0.7-0.9,1c0.1,0.3,0.3,0.6,0.4,0.9c0.2-0.3,0.4-0.7,0.7-1
		C58.1,102.7,57.9,102.4,57.5,102.1z"/>
	<path id="XMLID_226_" fill="#CB9B2C" d="M52.8,108c0.2,0.2,0.3,0.4,0.5,0.7c0.4-0.5,0.8-1,1.2-1.5c0.1-0.2,0.1-0.4,0.1-0.6
		c-0.2,0-0.5,0-0.6,0.1C53.5,107.1,53.2,107.6,52.8,108z"/>
	<path id="XMLID_227_" fill="#CB9B2C" d="M65.6,117.9c-0.3-0.1-0.7,0.3-1,0.4c0.1,0.2,0.2,0.5,0.4,0.6c0.6,0.3,1.2,0.5,1.8,0.8
		c0.5,0.2,0.7,0,0.8-0.6c-0.1-0.2-0.2-0.4-0.4-0.5C66.6,118.3,66.1,118,65.6,117.9z"/>
	<path id="XMLID_228_" fill="#CB9B2C" d="M70.3,117.9c-0.5,0.3-1.1,0.5-1.7,0.9c0,0.3,0,0.6,0.1,1.2c0.9-0.4,1.6-0.7,2.3-1
		c0.3-0.1,0.6-0.3,0.3-0.6C71.1,118.1,70.9,117.6,70.3,117.9z"/>
	<path id="XMLID_229_" fill="#CB9B2C" d="M59.9,103.7c-0.1,0-0.3,0.2-0.3,0.3c0,0.6,0,1.1,0,1.7c0.1-0.1,0.2-0.1,0.3-0.1
		c0.3-0.4,0.6-0.8,1.3-0.4c0.2,0.1,0.7-0.4,1-0.7c0.2-0.3,0.2-0.6,0.4-1.1C61.7,103.5,60.8,103.6,59.9,103.7z"/>
	<path id="XMLID_230_" fill="#CB9B2C" d="M63.7,113.2c0.2-0.6,0.4-1.1,0.6-1.6c-0.2-0.3-0.4-0.6-0.8-1.1c-0.5,1.2-0.8,2.1-1.2,3.2
		C62.9,113.5,63.4,113.9,63.7,113.2z"/>
	<path id="XMLID_231_" fill="#CB9B2C" d="M62.3,114.9c0.4,0.9,0.7,1.8,1.1,2.9c0.4-0.4,0.7-0.7,1-0.9c-0.3-0.5-0.5-0.9-0.7-1.3
		C63.4,114.7,63.4,114.6,62.3,114.9z"/>
</g>
</svg>
